
<svg width="2476px" height="1020.00195px" viewBox="0 0 2476 1020.00195" version="1.1" xmlns="http://www.w3.org/2000/svg" xmlns:xlink="http://www.w3.org/1999/xlink">
    <g id="Templates" stroke="none" stroke-width="1" fill="none" fill-rule="evenodd">
        <g id="A4" transform="translate(0, -2506.2385)" fill-rule="nonzero">
            <g id="ground" transform="translate(0, 2992.2795)">
                <polygon id="path68751" fill="#F9D1E3" points="998.068904 121.775184 1696.5625 13.3397434 2157.1875 35.8344426 2476 69.0552995 2476 512.720501 648 512.720501 648 92.6006383"></polygon>
                <polygon id="path67439" fill="#F39797" points="647.648437 512.720501 642.432537 187.62775 1056.89063 178.875253 1459.6875 92.6006383 1942.125 138.613766 2218.125 121.775184 2476 121.775184 2476 512.720501"></polygon>
                <polygon id="path68751" fill="#A84122" points="1361.25155 187.62775 1536.85937 187.62775 2241.90625 234.641163 2476 203.632316 2476 512.720501 648 512.720501 648 203.632316 792.265625 234.641163 1201.56854 234.641163"></polygon>
                <polygon id="path68751" fill="#4F1A0B" points="1035.42188 334.914914 1213.06454 352.154473 1438.90625 374.071569 1742.07813 350.174126 2068.64063 354.67541 2476 417.052757 2476 512.720501 648 512.720501 648 309.639123 724.795077 283.978779"></polygon>
                <polygon id="path68751" fill="#9C6078" points="648 512.720501 648 92.6006383 456.371094 60.806411 183.03125 13.3397434 -1.03417275e-13 1.98232199e-14 2.9064763e-14 512.720501"></polygon>
                <polygon id="path68751" fill="#6E3F3F" points="648 187.62775 648 512.720501 3.10442495e-16 512.743946 -5.7469654e-14 138.613766 201.3125 105.174538 462.620933 138.613766"></polygon>
                <polygon id="path68751" fill="#36170D" points="-1.03417275e-13 83.3050175 2.5993652e-14 512.743946 648 512.743946 648 203.632316 434.65625 213.514042 175.722656 178.875253"></polygon>
                <polygon id="path67453" fill="#260903" points="1485.94531 476.921225 1773.65625 449.382118 1844.64265 449.382118 2117.98438 476.921225 2476 449.382118 2476 533.960936 -9.97160355e-14 512.720501 -2.80528639e-14 298.024482 238.726562 256.360251 648 309.639123 737.476563 403.736282 852.992188 427.003951 926.34375 423.817708 1020 449.382118"></polygon>
            </g>
            <g id="mountain" transform="translate(0, 2506.2385)">
                <polygon id="path67439" fill="#190208" points="345.789063 731.685317 375.703125 731.685317 428.917808 718.431536 465.019531 731.685317 413.195312 933.258452 304.515625 897.732692"></polygon>
                <polygon id="path67439" fill="#220315" transform="translate(452.5537, 530.9147) scale(-1, 1) translate(-452.5537, -530.9147)" points="393.060868 624.654781 397.556641 412.602093 384.767578 377.657647 481.427734 412.602093 505.388672 590.645078 520.339844 684.171761"></polygon>
                <polygon id="path67439" fill="#692536" transform="translate(679.5578, 669.3003) scale(-1, 1) translate(-679.5578, -669.3003)" points="647.115642 610.312297 634.320565 778.054015 704.084392 731.685317 698.943767 664.916268 724.795077 560.546672"></polygon>
                <polygon id="path67439-copy-5" fill="#B6634B" transform="translate(691.9189, 763.3428) scale(-1, 1) translate(-691.9189, -763.3428)" points="648 795.000256 659.042813 778.054015 728.806641 731.685317 735.837891 758.234172"></polygon>
                <polygon id="path67439-copy-7" fill="#410707" transform="translate(624.207, 703.7639) scale(-1, 1) translate(-624.207, -703.7639)" points="636.38704 770.019793 655.03125 637.508048 593.382813 731.685317 600.414063 758.234172"></polygon>
                <polygon id="path67453" fill="#35060B" points="600 368.199016 593.382813 335.956828 600 272.58949 583.085938 260.160163 587.351563 119.593547 623.761719 154.445769 660.171875 170.595547 631.65625 374.583434"></polygon>
                <polygon id="path67439" fill="#471313" points="648 758.234172 737.476563 795.000256 737.476563 825.706828 753.601562 856.609172 724.795077 881.201608 648 891.786897"></polygon>
                <polygon id="path67439" fill="#21010A" points="506 913.598556 612.027022 770.019793 648 758.234172 648 891.786897 574.943806 913.598556"></polygon>
                <polygon id="path67439-copy-6" fill="#170000" points="567.0625 913.598556 648 923.429485 648 891.786897"></polygon>
                <polygon id="path67441" fill="#470C11" points="506.359375 184.029067 512.046554 329.293168 423.679687 374.583434 448.039063 170.595547"></polygon>
                <path d="M544,87.5015273 L544.096357,280.556607 L544,87.5015273 Z" id="path67441" fill="#A39CAC" transform="translate(544.0482, 184.0291) scale(-1, 1) translate(-544.0482, -184.0291)"></path>
                <polygon id="path67443" fill="#CE8064" points="555.680157 114.124934 567.0625 119.593547 556.023277 130.980266 506.359375 184.029067 448.039063 170.595547"></polygon>
                <polygon id="path67445" fill="#F69A6D" points="648 11.5814293 697.513511 1.11470195e-14 648 68.9962476 630.929687 68.9962476 587.351563 87.5015273"></polygon>
                <polygon id="path67445-copy" fill="#6F1818" points="587.351563 103.925578 608.949271 114.124934 648 103.925578 648 68.9962476 630.929687 68.9962476 587.351563 87.5015273"></polygon>
                <polygon id="path67449" fill="#D55D5A" points="648 68.9962476 697.513511 -1.43415952e-15 712 30.6415547 648 103.82011"></polygon>
                <polygon id="path67455" fill="#682D44" points="593.382812 260.160163 574.943806 130.980266 556.023277 130.980266 506.359375 184.029067 512.046554 329.293168"></polygon>
                <polygon id="path67457" fill="#3F0418" points="434.777344 703.763921 465.019531 705.177754 465.019531 731.685317 428.917808 718.431536 375.703125 731.685317 345.789062 731.685317"></polygon>
                <polygon id="path67457-copy" fill="#5F0114" points="512.046554 637.508048 465.019531 705.177754 465.019531 731.685317 520.339844 652.499797 540.738281 569.346032"></polygon>
                <path d="M512.046554,637.508048 L544.548178,560.546672 L512.046554,637.508048 Z" id="path67457-copy-2" fill="#771F30"></path>
                <polygon id="path67459" fill="#F7E0FF" points="716 170.595547 716 184.029067 648 260.160163 648 251.829071"></polygon>
                <polygon id="path67463" fill="#300C1A" points="593.382812 637.508048 607.53125 550.116985 638.68016 568.008486 660.171875 664.916268 655.03125 731.685317"></polygon>
                <polygon id="path67465" fill="#9E1C4D" points="660.171875 154.445769 668.41105 124.777787 716 57.0624671 712 91.5605909"></polygon>
                <polygon id="path67465-copy-2" fill="#AB4D4D" points="660.171875 154.445769 660.171875 170.595547 678.894483 145.504452 695.356906 123.442343 716 103.82011 712 87.5015273"></polygon>
                <polygon id="path67465-copy" fill="#2E0B18" points="660.171875 154.445769 668.41105 124.777787 608.949271 114.298949 587.351562 103.82011 587.351562 119.593547"></polygon>
                <polygon id="path67465-copy-3" fill="#3D1B39" points="660.171875 149.077001 660.171875 170.595547 624.67741 159.404633 587.351562 119.593547"></polygon>
                <polygon id="path67467" fill="#5A1926" points="369.859375 705.177754 429.910264 676.598342 512.046554 637.508048 465.019531 705.177754 434.65625 705.177754 345.789062 731.685317"></polygon>
                <polygon id="path69310" fill="#8D5948" points="660.171875 170.595547 631.65625 374.583434 668.41105 386.090623 706.355469 386.090623 697.513511 312.806782 716 103.82011 697.513511 119.593547"></polygon>
                <polygon id="path69312" fill="#47132E" points="413.195312 933.258452 465.019531 731.685317 520.339844 652.499797 512.046554 801.455223 481.476563 897.732692"></polygon>
                <polygon id="path69312-copy-2" fill="#12070D" points="507.550781 907.608191 600 770.019793 583.085937 664.916268 549.871094 684.596682 512.046554 801.455223 481.476563 897.732692"></polygon>
                <polygon id="path69312-copy" fill="#4F1F37" points="588.057664 463.880309 540.738281 569.346032 520.339844 652.499797 512.046554 801.455223 549.871094 684.596682 583.085937 664.916268 615.828125 480.305805 608.949271 430.976035"></polygon>
                <polygon id="path67439" fill="#541F2B" points="423.679688 374.583434 418.429687 393.592763 462.620933 393.592763 520.339844 346.363078 512.046554 329.293168"></polygon>
                <polygon id="path67439" fill="#EF8370" points="520.339844 346.363078 512.046554 329.293168 593.382813 260.160163 600 266.777141"></polygon>
                <polygon id="path67439-copy-3" fill="#531728" points="520.339844 346.363078 520.339844 360.773235 600 266.777141"></polygon>
                <polygon id="path67439-copy-4" fill="#300712" points="520.339844 346.363078 520.339844 360.773235 462.620933 393.592763"></polygon>
                <polygon id="path67439" fill="#210C29" points="384.767578 684.171761 512.046554 624.654781 512.046554 637.508048 369.859375 705.177754"></polygon>
                <polygon id="path67461" fill="#5F100F" points="593.382813 335.956828 600 266.777141 520.339844 360.773235 520.339844 377.657647"></polygon>
                <polygon id="path67461-copy" fill="#3C090B" points="423.679687 412.602093 418.429687 393.592763 462.620933 393.592763 520.339844 360.773235 520.339844 377.657647"></polygon>
                <polygon id="path67439" fill="#230C0B" points="648 891.786897 727.300781 881.201608 753.601562 856.609172 823.675781 904.19511 709.140625 913.448113 648 923.429485"></polygon>
                <polygon id="path67453" fill="#000000" points="-1.03259537e-13 998.761516 -6.18350643e-13 885.103864 64.8283033 913.598556 224.32911 904.19511 304.515625 891.786897 413.195312 933.258452 481.476562 897.732692 512.046554 909.858722 567.0625 913.598556 648 923.429485 823.675781 904.19511 700.800781 939.734172 648 971.960735 647.648437 998.761516"></polygon>
                <polygon id="path69310" fill="#793232" points="631.65625 377.657647 623.761719 484.294422 612.027022 525.704675 706.210937 601.390422 722.972978 484.294422 722.972978 412.602093 712 398.590283"></polygon>
                <polygon id="path69310-copy-3" fill="#FDB2A6" points="638.68016 568.008486 612.027022 525.704675 706.210938 601.390422 712 610.312297"></polygon>
                <polygon id="path69310-copy-4" fill="#541316" points="638.68016 568.008486 612.027022 525.704675 607.53125 550.116985"></polygon>
                <polygon id="path69310-copy" fill="#230B0B" points="631.65625 377.657647 623.761719 484.294422 615.828125 480.305805 608.949271 430.976035 608.949271 393.592763 600 386.090623"></polygon>
                <polygon id="path67461" fill="#FEC3A6" points="716 59.7592372 712 30.6415547 648 103.82011 668.41105 124.777787"></polygon>
                <polygon id="path67461-copy-3" fill="#600813" points="608.949271 114.124934 648 103.82011 668.41105 125.286906"></polygon>
                <polygon id="path67461-copy-2" fill="#FFD5C0" points="574.943806 130.980266 567.0625 119.593547 556.023277 130.980266"></polygon>
                <polygon id="path67439" fill="#DBAB9B" points="703.884406 398.590283 634.320565 378.4298 631.65625 377.657647 633.320565 374.583434 667.686505 383.841341 706.355469 386.090623 716 398.590283 722.972978 412.602093"></polygon>
                <polygon id="path67439-copy" fill="#5E2772" points="608.949271 393.592763 512.046554 624.654781 512.046554 637.508048 588.057664 463.880309 608.949271 430.976035"></polygon>
                <polygon id="path67439-copy-2" fill="#5E3B30" points="600 386.090623 634.320565 378.4298 631.65625 377.657647 633.320565 374.583434 600 368.199016"></polygon>
                <polygon id="path67461" fill="#833146" points="593.382813 335.956828 608.949271 393.592763 512.046554 624.654781 506.359375 412.602093 520.339844 377.657647"></polygon>
                <polygon id="path69310-copy-2" fill="#020006" points="612.027022 525.704675 623.761719 484.294422 615.828125 480.305805 583.085937 664.916268 600 770.019793 506 907.608191 512.046554 907.608191 612.027022 770.019793 593.382813 637.508048"></polygon>
            </g>
        </g>
    </g>
</svg>