<svg width="48px" height="40.0228376px" viewBox="0 0 48 40.0228376" version="1.1" xmlns="http://www.w3.org/2000/svg" xmlns:xlink="http://www.w3.org/1999/xlink">
    <g id="Templates" stroke="none" stroke-width="1" fill="none" fill-rule="evenodd">
        <g id="A4" transform="translate(-781, -375.1124)" fill="#264A76" fill-rule="nonzero">
            <g id="Top" transform="translate(781, 31.8897)">
                <g id="email" transform="translate(0, 329.2313)">
                    <path d="M47.8761553,19.6892795 C47.6597799,18.531446 47.1764977,17.4719078 46.5015902,16.5966112 C46.3592774,16.4058963 46.2105896,16.2350994 46.049433,16.0643025 C44.8536495,14.7877577 43.1753337,13.9914359 41.3418614,13.9914359 L6.65823166,13.9914359 C4.82475936,13.9914359 3.15244361,14.7877577 1.95103503,16.0643025 C1.79025347,16.2350994 1.64156568,16.4058963 1.49887791,16.5966112 C0.823595347,17.4718082 0.34031316,18.531446 0.129937752,19.6892795 C0.0435000843,20.1361399 0,20.5979389 0,21.0648169 L0,46.9415897 C0,47.934303 0.198187884,48.8885745 0.55162607,49.7503269 C0.879470455,50.5729405 1.36284639,51.3172762 1.95094128,51.9414069 C2.10000407,52.0993566 2.24803561,52.2445589 2.40956717,52.3889644 C3.56138191,53.4022928 5.04816604,54.0142735 6.65823166,54.0142735 L41.3418614,54.0142735 C42.9524895,54.0142735 44.4457424,53.4022928 45.5909009,52.3825906 C45.7519637,52.2445589 45.9007452,52.0993566 46.049433,51.9414069 C46.6372467,51.3172762 47.1205289,50.5729405 47.4551233,49.7503269 L47.4551233,49.7439532 C47.8084677,48.8822007 48,47.934303 48,46.9416893 L48,21.0648169 C48,20.5979389 47.9572492,20.1361399 47.8761553,19.6892795 Z M4.3602272,18.623268 C4.95507211,17.9920665 5.75391741,17.6099396 6.65823166,17.6099396 L41.3418614,17.6099396 C42.2461757,17.6099396 43.0520522,17.9920665 43.6398659,18.623268 C43.7450536,18.7357051 43.8441475,18.8609894 43.9316164,18.9854769 L25.7527999,35.8156918 C25.251424,36.2824702 24.6321103,36.5130211 24.0000465,36.5130211 C23.3743578,36.5130211 22.7554191,36.2824702 22.2473869,35.8156918 L4.0755079,18.9783064 C4.15594556,18.8538189 4.2550395,18.7357051 4.3602272,18.623268 Z M3.4063191,46.9415897 L3.4063191,22.7227914 L16.5617196,34.9141033 L3.41297537,47.0924685 C3.4063191,47.0462588 3.4063191,46.9942728 3.4063191,46.9415897 Z M41.3418614,50.3950727 L6.65823166,50.3950727 C6.06938677,50.3950727 5.51841695,50.2306496 5.04816604,49.9417389 L18.9211304,37.09871 L20.2162892,38.2955828 C21.3001351,39.2960641 22.6564189,39.8027781 24.0000465,39.8027781 C25.3506117,39.8027781 26.7068018,39.2960641 27.7905539,38.2955828 L29.0850564,37.09871 L42.9525833,49.9417389 C42.4816761,50.2306496 41.9307063,50.3950727 41.3418614,50.3950727 Z M44.593774,46.9415897 C44.593774,46.9942728 44.593774,47.0462588 44.587399,47.0924685 L31.4387485,34.9211742 L44.593774,22.7292648 L44.593774,46.9415897 Z" id="logo"></path>
                </g>
            </g>
        </g>
    </g>
</svg>