
<svg width="47.9806217px" height="48.0275831px" viewBox="0 0 47.9806217 48.0275831" version="1.1" xmlns="http://www.w3.org/2000/svg" xmlns:xlink="http://www.w3.org/1999/xlink">
    <g id="Templates" stroke="none" stroke-width="1" fill="none" fill-rule="evenodd">
        <g id="A4" transform="translate(-1650.679, -373.5724)" fill="#264A76" fill-rule="nonzero">
            <g id="Top" transform="translate(781, 31.8897)">
                <g id="gh" transform="translate(869.679, 331.6941)">
                    <path d="M23.9903109,9.98858122 C37.2401595,9.98858122 47.9806217,21.0108707 47.9806217,34.6098304 C47.9806217,45.4856363 41.1145948,54.7117008 31.5880423,57.9703603 C30.3717335,58.2128987 29.939908,57.4444602 29.939908,56.7888861 C29.939908,55.977223 29.9686963,53.3261102 29.9686963,50.0314302 C29.9686963,47.7357202 29.2010064,46.2372652 28.3397542,45.4736295 C33.6823964,44.8636814 39.2961292,42.7816934 39.2961292,33.3250973 C39.2961292,30.6355627 38.3653051,28.4407102 36.8251272,26.7165264 C37.0746264,26.0945715 37.8974941,23.5899423 36.5900221,20.1992075 C36.5900221,20.1992075 34.5796341,19.5388307 29.9998837,22.7230477 C28.0830579,22.1779366 26.0294873,21.9041804 23.9903109,21.8945749 C21.9511344,21.9041804 19.8999629,22.1779366 17.9855361,22.7230477 C13.4009876,19.5388307 11.3858015,20.1992075 11.3858015,20.1992075 C10.0831277,23.5899423 10.9059953,26.0945715 11.1530955,26.7165264 C9.62011465,28.4407102 8.6820935,30.6355627 8.6820935,33.3250973 C8.6820935,42.7576797 14.2838311,44.8708855 19.6120791,45.4928404 C18.9259562,46.1075912 18.3046072,47.1930106 18.0886944,48.785119 C16.7212467,49.414278 13.2474497,50.5020988 11.1075139,46.7391516 C11.1075139,46.7391516 9.83842648,44.3738019 7.42979927,44.2009032 C7.42979927,44.2009032 5.09074396,44.1696854 7.26666516,45.6969569 C7.26666516,45.6969569 8.83803052,46.4533885 9.92958966,49.2990123 C9.92958966,49.2990123 11.3378209,53.6935198 18.0119254,52.2046703 C18.0239205,54.2626446 18.0455118,56.2029518 18.0455118,56.7888861 C18.0455118,57.4396574 17.6040901,58.2008918 16.4069736,57.9727616 C6.87322406,54.7189049 0,45.4880377 0,34.6098304 C0,21.0108707 10.7428612,9.98858122 23.9903109,9.98858122" id="github-[#142]"></path>
                </g>
            </g>
        </g>
    </g>
</svg>