
<svg width="48px" height="48.0274051px" viewBox="0 0 48 48.0274051" version="1.1" xmlns="http://www.w3.org/2000/svg" xmlns:xlink="http://www.w3.org/1999/xlink">
    <g id="Templates" stroke="none" stroke-width="1" fill="none" fill-rule="evenodd">
        <g id="A4" transform="translate(-784, -471.1383)" fill="#264A76">
            <g id="Top" transform="translate(781, 31.8897)">
                <g id="ln" transform="translate(3, 425.6833)">
                    <g id="logo" transform="translate(0, 13.5653)">
                        <path d="M12,15.2814471 C13.8074836,15.2814471 15.2727273,13.8153669 15.2727273,12.0068513 C15.2727273,10.1983357 13.8074836,8.73225547 12,8.73225547 C10.1925164,8.73225547 8.72727273,10.1983357 8.72727273,12.0068513 C8.72727273,13.8153669 10.1925164,15.2814471 12,15.2814471 Z" id="Path" fill-rule="nonzero"></path>
                        <path d="M8.72727273,19.6475748 C8.72727273,18.4419123 9.70411636,17.4645109 10.9090909,17.4645109 L13.0909091,17.4645109 C14.2958836,17.4645109 15.2727273,18.4418905 15.2727273,19.6475748 L15.2727273,37.1120857 C15.2727273,38.3177919 14.2958836,39.2951496 13.0909091,39.2951496 L10.9090909,39.2951496 C9.70411636,39.2951496 8.72727273,38.3177919 8.72727273,37.1120857 L8.72727273,19.6475748 Z" id="Path" fill-rule="nonzero"></path>
                        <path d="M21.8181818,39.2951496 L24,39.2951496 C25.2050182,39.2951496 26.1818182,38.3177919 26.1818182,37.1120857 L26.1818182,27.2882983 C26.1818182,24.0137025 32.7272727,21.8306387 32.7272727,26.1967664 L32.7272727,37.112959 C32.7272727,38.3186651 33.7040727,39.2951496 34.9090909,39.2951496 L37.0909091,39.2951496 C38.2959273,39.2951496 39.2727273,38.3177919 39.2727273,37.1120857 L39.2727273,24.0137025 C39.2727273,19.6475748 36,17.4645109 31.6363636,17.4645109 C27.2727273,17.4645109 26.1818182,20.7391067 26.1818182,20.7391067 L26.1818182,19.6475748 C26.1818182,18.4418905 25.2050182,17.4645109 24,17.4645109 L21.8181818,17.4645109 C20.6131636,17.4645109 19.6363636,18.4419123 19.6363636,19.6475748 L19.6363636,37.1120857 C19.6363636,38.3177919 20.6131636,39.2951496 21.8181818,39.2951496 Z" id="Path" fill-rule="nonzero"></path>
                        <path d="M41.4545455,0 C45.0696,0 48,2.93218223 48,6.5491916 L48,41.4782135 C48,45.095332 45.0696,48.0274051 41.4545455,48.0274051 L6.54545455,48.0274051 C2.93050909,48.0274051 0,45.095332 0,41.4782135 L0,6.5491916 C0,2.93218223 2.93050909,0 6.54545455,0 L41.4545455,0 Z M41.4545455,4.36612773 C42.6595636,4.36612773 43.6363636,5.34352909 43.6363636,6.5491916 L43.6363636,41.4782135 C43.6363636,42.6839197 42.6595636,43.6612773 41.4545455,43.6612773 L6.54545455,43.6612773 C5.34048,43.6612773 4.36363636,42.6839197 4.36363636,41.4782135 L4.36363636,6.5491916 C4.36363636,5.34352909 5.34048,4.36612773 6.54545455,4.36612773 L41.4545455,4.36612773 Z" id="Shape"></path>
                    </g>
                </g>
            </g>
        </g>
    </g>
</svg>