<svg width="48px" height="48.0274051px" viewBox="0 0 48 48.0274051" version="1.1" xmlns="http://www.w3.org/2000/svg" xmlns:xlink="http://www.w3.org/1999/xlink">
    <g id="Templates" stroke="none" stroke-width="1" fill="none" fill-rule="evenodd">
        <g id="A4" transform="translate(-1349, -471.1381)" fill="#264A76" fill-rule="nonzero">
            <g id="Top" transform="translate(781, 31.8897)">
                <g id="phone" transform="translate(568, 426.2604)">
                    <path d="M24,15.9897231 C35.578125,15.9897231 45,25.4169774 45,37.0017128 C45,48.5864482 35.578125,58.0137025 24,58.0137025 C12.421875,58.0137025 3,48.5864482 3,37.0017128 C3,25.4169774 12.421875,15.9897231 24,15.9897231 M24,12.9880103 C10.7460938,12.9880103 0,23.7402394 0,37.0017128 C0,50.2631862 10.7460938,61.0154154 24,61.0154154 C37.2539062,61.0154154 48,50.2631862 48,37.0017128 C48,23.7402394 37.2539062,12.9880103 24,12.9880103 L24,12.9880103 Z M37.3799062,45.0307318 L37.2450937,44.6203414 C36.9286875,43.6764903 35.8857187,42.6915533 34.9247812,42.4276839 L31.377,41.4573803 C30.4160625,41.1965127 29.0449687,41.5482759 28.3390312,42.2547102 L27.0557812,43.5386929 C22.3917187,42.2752532 18.7325625,38.6140078 17.47275,33.9472824 L18.756,32.6632998 C19.459125,31.9597733 19.8106875,30.5878968 19.5499687,29.6235027 L18.5830312,26.0736021 C18.3223125,25.112116 17.3320312,24.0685517 16.3887187,23.7519648 L15.984375,23.6170754 C15.0380625,23.3004885 13.6875,23.6199833 12.984375,24.3265114 L11.0625,26.2494837 C10.71975,26.5895215 10.5,27.565641 10.5,27.5686427 C10.4355,33.6717815 12.8262187,39.5491352 17.1387187,43.8670052 C21.4395,48.170242 27.2930625,50.5594178 33.3720937,50.5065126 C33.4043437,50.5065126 34.40925,50.2925467 34.752,49.9495073 L36.673875,48.026535 C37.377,47.3259164 37.6933125,45.9745829 37.3799062,45.0307318 Z" id="logo"></path>
                </g>
            </g>
        </g>
    </g>
</svg>